HIERARCHY
ROOT Hips
{
  OFFSET 5.84602e-005 68.8428 3.50346
  CHANNELS 6 Xposition Yposition Zposition Zrotation Xrotation Yrotation
  JOINT Spine
  {
    OFFSET 0 8.597 -4.6522
    CHANNELS 3 Zrotation Xrotation Yrotation
    JOINT Spine1
    {
      OFFSET 0 7.8454 0.4098
      CHANNELS 3 Zrotation Xrotation Yrotation
      JOINT Spine2
      {
        OFFSET 0 9.7078 -2.1609
        CHANNELS 3 Zrotation Xrotation Yrotation
        JOINT Neck
        {
          OFFSET 0 21.8761 -0.4549
          CHANNELS 3 Zrotation Xrotation Yrotation
          JOINT Head
          {
            OFFSET 0 12.3537 3.3602
            CHANNELS 3 Zrotation Xrotation Yrotation
            End Site
            {
              OFFSET 0.0001 18.9506 0.5657
            }
          }
        }
        JOINT LeftShoulder
        {
          OFFSET 2.2086 21.1115 7.2329
          CHANNELS 3 Zrotation Xrotation Yrotation
          JOINT LeftArm
          {
            OFFSET 13.1193 3.0282 -4.8998
            CHANNELS 3 Zrotation Xrotation Yrotation
            JOINT LeftForeArm
            {
              OFFSET 27.4081 -0.0973053 -0.2375
              CHANNELS 3 Zrotation Xrotation Yrotation
              JOINT LeftHand
              {
                OFFSET 22.8641 0.0662994 -0.1369
                CHANNELS 3 Zrotation Xrotation Yrotation
                JOINT LeftHandIndex1
                {
                  OFFSET 8.8614 0.775009 2.4612
                  CHANNELS 3 Zrotation Xrotation Yrotation
                  JOINT LeftHandIndex2
                  {
                    OFFSET 3.3146 -0.808304 0.5841
                    CHANNELS 3 Zrotation Xrotation Yrotation
                    JOINT LeftHandIndex3
                    {
                      OFFSET 2.2628 -0.552002 0.3989
                      CHANNELS 3 Zrotation Xrotation Yrotation
                      End Site
                      {
                        OFFSET 1.6102 -0.4807 0.2612
                      }
                    }
                  }
                }
                JOINT LeftHandMiddle1
                {
                  OFFSET 8.9937 0.895004 0.2143
                  CHANNELS 3 Zrotation Xrotation Yrotation
                  JOINT LeftHandMiddle2
                  {
                    OFFSET 4.0984 0.0113983 -0.0242
                    CHANNELS 3 Zrotation Xrotation Yrotation
                    JOINT LeftHandMiddle3
                    {
                      OFFSET 2.2716 0.00689697 -0.0138001
                      CHANNELS 3 Zrotation Xrotation Yrotation
                      End Site
                      {
                        OFFSET 2.0404 -0.1441 0.0027
                      }
                    }
                  }
                }
                JOINT LeftHandRing1
                {
                  OFFSET 8.5234 0.597198 -2.0164
                  CHANNELS 3 Zrotation Xrotation Yrotation
                  JOINT LeftHandRing2
                  {
                    OFFSET 3.7188 -0.188293 -0.2328
                    CHANNELS 3 Zrotation Xrotation Yrotation
                    JOINT LeftHandRing3
                    {
                      OFFSET 2.1191 -0.106598 -0.1332
                      CHANNELS 3 Zrotation Xrotation Yrotation
                      End Site
                      {
                        OFFSET 1.8737 -0.2304 -0.0886
                      }
                    }
                  }
                }
                JOINT LeftHandPinky1
                {
                  OFFSET 7.9094 -0.601089 -3.4825
                  CHANNELS 3 Zrotation Xrotation Yrotation
                  JOINT LeftHandPinky2
                  {
                    OFFSET 2.2874 -0.477005 -0.6314
                    CHANNELS 3 Zrotation Xrotation Yrotation
                    JOINT LeftHandPinky3
                    {
                      OFFSET 1.6774 -0.349396 -0.4633
                      CHANNELS 3 Zrotation Xrotation Yrotation
                      End Site
                      {
                        OFFSET 1.4888 -0.4091 -0.3416
                      }
                    }
                  }
                }
                JOINT LeftHandThumb1
                {
                  OFFSET 1.833 -1.3875 1.3896
                  CHANNELS 3 Zrotation Xrotation Yrotation
                  JOINT LeftHandThumb2
                  {
                    OFFSET 3.4129 -1.121 2.5732
                    CHANNELS 3 Zrotation Xrotation Yrotation
                    JOINT LeftHandThumb3
                    {
                      OFFSET 2.2474 -0.804199 1.6192
                      CHANNELS 3 Zrotation Xrotation Yrotation
                      End Site
                      {
                        OFFSET 1.6527 -0.5689 1.1317
                      }
                    }
                  }
                }
              }
            }
          }
        }
        JOINT RightShoulder
        {
          OFFSET -2.2086 21.1115 7.2329
          CHANNELS 3 Zrotation Xrotation Yrotation
          JOINT RightArm
          {
            OFFSET -13.1216 3.0287 -4.9007
            CHANNELS 3 Zrotation Xrotation Yrotation
            JOINT RightForeArm
            {
              OFFSET -27.4081 -0.0973053 -0.2375
              CHANNELS 3 Zrotation Xrotation Yrotation
              JOINT RightHand
              {
                OFFSET -22.8641 0.0664063 -0.1369
                CHANNELS 3 Zrotation Xrotation Yrotation
                JOINT RightHandIndex1
                {
                  OFFSET -8.8614 0.774994 2.4612
                  CHANNELS 3 Zrotation Xrotation Yrotation
                  JOINT RightHandIndex2
                  {
                    OFFSET -3.3146 -0.808304 0.5841
                    CHANNELS 3 Zrotation Xrotation Yrotation
                    JOINT RightHandIndex3
                    {
                      OFFSET -2.2628 -0.552002 0.3989
                      CHANNELS 3 Zrotation Xrotation Yrotation
                      End Site
                      {
                        OFFSET -1.6102 -0.4807 0.2612
                      }
                    }
                  }
                }
                JOINT RightHandMiddle1
                {
                  OFFSET -8.9937 0.894989 0.2143
                  CHANNELS 3 Zrotation Xrotation Yrotation
                  JOINT RightHandMiddle2
                  {
                    OFFSET -4.0984 0.0113983 -0.0242
                    CHANNELS 3 Zrotation Xrotation Yrotation
                    JOINT RightHandMiddle3
                    {
                      OFFSET -2.2716 0.00691223 -0.0138001
                      CHANNELS 3 Zrotation Xrotation Yrotation
                      End Site
                      {
                        OFFSET -2.0404 -0.1441 0.0027
                      }
                    }
                  }
                }
                JOINT RightHandRing1
                {
                  OFFSET -8.5234 0.597198 -2.0164
                  CHANNELS 3 Zrotation Xrotation Yrotation
                  JOINT RightHandRing2
                  {
                    OFFSET -3.7188 -0.188309 -0.2328
                    CHANNELS 3 Zrotation Xrotation Yrotation
                    JOINT RightHandRing3
                    {
                      OFFSET -2.1191 -0.106598 -0.1332
                      CHANNELS 3 Zrotation Xrotation Yrotation
                      End Site
                      {
                        OFFSET -1.8737 -0.2304 -0.0886
                      }
                    }
                  }
                }
                JOINT RightHandPinky1
                {
                  OFFSET -7.9094 -0.601105 -3.4825
                  CHANNELS 3 Zrotation Xrotation Yrotation
                  JOINT RightHandPinky2
                  {
                    OFFSET -2.2874 -0.477005 -0.6314
                    CHANNELS 3 Zrotation Xrotation Yrotation
                    JOINT RightHandPinky3
                    {
                      OFFSET -1.6774 -0.349396 -0.4633
                      CHANNELS 3 Zrotation Xrotation Yrotation
                      End Site
                      {
                        OFFSET -1.4888 -0.4091 -0.3416
                      }
                    }
                  }
                }
                JOINT RightHandThumb1
                {
                  OFFSET -1.833 -1.38751 1.3896
                  CHANNELS 3 Zrotation Xrotation Yrotation
                  JOINT RightHandThumb2
                  {
                    OFFSET -3.41299 -1.12099 2.5732
                    CHANNELS 3 Zrotation Xrotation Yrotation
                    JOINT RightHandThumb3
                    {
                      OFFSET -2.24741 -0.804108 1.6192
                      CHANNELS 3 Zrotation Xrotation Yrotation
                      End Site
                      {
                        OFFSET -1.6527 -0.5689 1.1317
                      }
                    }
                  }
                }
              }
            }
          }
        }
      }
    }
  }
  JOINT RightUpLeg
  {
    OFFSET -9.1966 3.8861 -0.7581
    CHANNELS 3 Zrotation Xrotation Yrotation
    JOINT RightLeg
    {
      OFFSET -0.7359 -41.0265 0
      CHANNELS 3 Zrotation Xrotation Yrotation
      JOINT RightFoot
      {
        OFFSET 0 -40.2855 0
        CHANNELS 3 Zrotation Xrotation Yrotation
        JOINT RightToeBase
        {
          OFFSET 0 -5.6122 11.7359
          CHANNELS 3 Zrotation Xrotation Yrotation
          End Site
          {
            OFFSET 0 0 7.8731
          }
        }
      }
    }
  }
  JOINT LeftUpLeg
  {
    OFFSET 9.1965 3.8864 -0.7581
    CHANNELS 3 Zrotation Xrotation Yrotation
    JOINT LeftLeg
    {
      OFFSET 0.7359 -41.0268 0
      CHANNELS 3 Zrotation Xrotation Yrotation
      JOINT LeftFoot
      {
        OFFSET 0 -40.2855 0
        CHANNELS 3 Zrotation Xrotation Yrotation
        JOINT LeftToeBase
        {
          OFFSET 0 -5.6122 11.7359
          CHANNELS 3 Zrotation Xrotation Yrotation
          End Site
          {
            OFFSET 0 0 7.8731
          }
        }
      }
    }
  }
}
MOTION
Frames:	4
Frame Time:	0.0333333
-0.0134531 24.7774 -56.3808 -0 -63.0022 -0 0 12.9987 -0 0 25.9973 -0 0 25.9973 -0 0 0.000576993 -0 0.000829396 0.274519 -0.173106 -0 -8.32304e-006 -0 -76.2594 -15.4382 -15.5796 10.4908 17.8166 -45.5346 0.577606 29.9949 -1.15529 2.18619e-007 -3.37722e-007 -1.41843e-007 3.18055e-015 1.11319e-014 -3.18055e-015 2.18619e-007 -3.37722e-007 -1.41843e-007 2.18619e-007 -3.37722e-007 -1.41843e-007 -0.0146038 -9.06311e-005 8.30119e-006 2.18621e-007 -3.37704e-007 -1.41886e-007 2.18619e-007 -3.37722e-007 -1.41843e-007 -0.0187608 -0.00117716 5.68656e-005 3.39154e-006 9.68757e-007 1.64649e-006 2.18619e-007 -3.37722e-007 -1.41843e-007 -0.012214 -0.00323316 0.000679329 2.18615e-007 -3.37708e-007 -1.41885e-007 2.18619e-007 -3.37722e-007 -1.41843e-007 3.18055e-015 1.11319e-014 -3.18055e-015 2.18619e-007 -3.37722e-007 -1.41843e-007 -0 -8.32304e-006 -0 62.7945 26.7018 29.3862 -1.12842 -4.87554 76.9506 65.996 -8.95753e-006 -6.30759e-006 -1.88703e-006 9.49372e-006 2.23808e-006 -1.18833e-006 8.77118e-007 -5.71315e-007 -7.90835e-007 -7.7432e-008 1.70761e-006 -1.88703e-006 9.49372e-006 2.23808e-006 0.0150178 -8.4586e-005 9.99414e-007 -7.90793e-007 -7.72084e-008 1.70762e-006 -1.88703e-006 9.49372e-006 2.23808e-006 0.0189709 -0.00119168 -5.97398e-005 -7.90766e-007 -7.7153e-008 1.70763e-006 -1.88703e-006 9.49372e-006 2.23808e-006 0.0122872 -0.00324392 -0.000680217 -1.45316e-006 9.08863e-007 1.79404e-006 -1.88703e-006 9.49372e-006 2.23808e-006 -1.18833e-006 8.77118e-007 -5.71315e-007 -7.90835e-007 -7.7432e-008 1.70761e-006 -8.75797 -29.3994 14.3673 0.0102118 75.0661 -10.1513 -2.93513 16.4152 -1.00229 4.87022e-015 3.97569e-016 -0 8.9177 -29.148 -17.2974 -0.0106688 74.6735 10.0134 2.04252 10.7183 1.27392 -1.62486e-006 7.86497e-007 -1.69887e-006 
-0.0134537 24.7774 -56.3809 -0 -63.0022 -0 0 12.9987 -0 0 25.9973 -0 0 25.9973 -0 0 0.000637697 -0 0.000829396 0.27452 -0.173106 -0 -8.32304e-006 -0 -76.2594 -15.4382 -15.5796 10.4908 17.8166 -45.5346 0.57761 29.9949 -1.15528 2.18619e-007 -3.37722e-007 -1.41843e-007 2.18619e-007 -3.37722e-007 -1.41843e-007 2.18619e-007 -3.37722e-007 -1.41843e-007 2.18619e-007 -3.37722e-007 -1.41843e-007 -0.0145994 -8.76085e-005 1.20959e-005 3.39193e-006 9.68923e-007 1.64648e-006 2.18619e-007 -3.37722e-007 -1.41843e-007 -0.0187639 -0.00117799 5.9481e-005 2.1862e-007 -3.37699e-007 -1.419e-007 2.18619e-007 -3.37722e-007 -1.41843e-007 -0.0122037 -0.0032314 0.000661374 2.18615e-007 -3.37708e-007 -1.41885e-007 2.18619e-007 -3.37722e-007 -1.41843e-007 2.18619e-007 -3.37722e-007 -1.41843e-007 2.18619e-007 -3.37722e-007 -1.41843e-007 -0 -8.32304e-006 -0 62.7945 26.7018 29.3862 -1.22627 -4.85173 75.7952 65.996 -1.28545e-005 4.56555e-006 2.98177e-016 1.59028e-015 2.21148e-015 -5.30101e-007 -1.11011e-007 -6.52756e-007 -7.95139e-016 -1.59028e-015 -4.02539e-015 2.98177e-016 1.59028e-015 2.21148e-015 0.0150151 -8.90439e-005 2.81971e-008 -5.96354e-016 -1.59028e-015 9.49197e-015 2.98177e-016 1.59028e-015 2.21148e-015 0.0189916 -0.00120292 -6.03851e-005 -1.68967e-015 -3.18055e-015 -6.28657e-015 2.98177e-016 1.59028e-015 2.21148e-015 0.0123399 -0.00326532 -0.000679291 9.93923e-017 -1.59028e-015 4.19933e-015 2.98177e-016 1.59028e-015 2.21148e-015 -5.30101e-007 -1.11011e-007 -6.52756e-007 -7.95139e-016 -1.59028e-015 -4.02539e-015 -8.77987 -29.4132 14.372 0.0111284 75.1022 -9.57393 -2.95811 16.4242 -0.994078 1.16299e-006 -4.47323e-008 1.02918e-006 8.93746 -29.162 -17.3022 -0.0113735 74.709 9.436 2.06246 10.7277 1.26711 -1.65289e-006 2.67169e-007 1.08335e-007 
-0.0134521 24.7774 -56.3809 -0 -63.0022 -0 0 12.9987 -0 0 25.9973 -0 0 25.9973 -0 0 0.000628733 -0 0.000829396 0.27452 -0.173106 -0 -8.32304e-006 -0 -76.2594 -15.4382 -15.5796 10.4908 17.8166 -45.5346 0.577609 29.9949 -1.15528 2.18619e-007 -3.37722e-007 -1.41843e-007 2.18619e-007 -3.37722e-007 -1.41843e-007 3.39335e-006 9.69142e-007 1.64636e-006 2.18619e-007 -3.37722e-007 -1.41843e-007 -0.0145997 -9.0675e-005 9.52255e-006 2.18621e-007 -3.37704e-007 -1.41886e-007 2.18619e-007 -3.37722e-007 -1.41843e-007 -0.0187608 -0.00117669 6.12695e-005 2.1862e-007 -3.37699e-007 -1.419e-007 2.18619e-007 -3.37722e-007 -1.41843e-007 -0.0122349 -0.00323997 0.00068037 2.18615e-007 -3.37708e-007 -1.41885e-007 2.18619e-007 -3.37722e-007 -1.41843e-007 2.18619e-007 -3.37722e-007 -1.41843e-007 3.39335e-006 9.69142e-007 1.64636e-006 -0 -8.32304e-006 -0 62.7946 26.7018 29.3862 -1.32377 -4.82591 74.6387 65.996 1.16152e-006 -7.85993e-006 5.35275e-007 1.12734e-007 6.47583e-007 2.24617e-007 -2.21279e-008 -2.36572e-006 5.35275e-007 1.12734e-007 6.47583e-007 5.35275e-007 1.12734e-007 6.47583e-007 0.0149735 -9.61943e-005 1.96563e-006 5.35289e-007 1.12819e-007 6.47568e-007 5.35275e-007 1.12734e-007 6.47583e-007 0.0190369 -0.0011892 -5.85523e-005 5.35299e-007 1.12841e-007 6.47559e-007 5.35275e-007 1.12734e-007 6.47583e-007 0.0123044 -0.00325982 -0.000676139 -4.12685e-007 6.21363e-006 3.9545e-007 5.35275e-007 1.12734e-007 6.47583e-007 2.24617e-007 -2.21279e-008 -2.36572e-006 5.35275e-007 1.12734e-007 6.47583e-007 -8.80208 -29.4264 14.3767 0.0120709 75.1371 -8.99636 -2.98121 16.4335 -0.985781 -4.17448e-015 9.93923e-016 -0 8.95729 -29.1762 -17.3072 -0.0120702 74.7445 8.85835 2.0825 10.7374 1.26023 -4.77083e-015 4.77083e-015 6.36111e-015 
-0.0134519 24.7773 -56.3809 -0 -63.0022 -0 0 12.9987 -0 0 25.9973 -0 0 25.9973 -0 0 0.000576993 -0 0.000829396 0.274519 -0.173106 -0 -8.32304e-006 -0 -76.2594 -15.4382 -15.5796 10.4908 17.8166 -45.5346 0.57761 29.9949 -1.15528 2.18619e-007 -3.37722e-007 -1.41843e-007 2.18619e-007 -3.37722e-007 -1.41843e-007 2.18619e-007 -3.37722e-007 -1.41843e-007 2.18619e-007 -3.37722e-007 -1.41843e-007 -0.0145994 -8.76085e-005 1.20959e-005 3.39193e-006 9.68923e-007 1.64648e-006 2.18619e-007 -3.37722e-007 -1.41843e-007 -0.0187639 -0.00117799 5.9481e-005 2.1862e-007 -3.37699e-007 -1.419e-007 2.18619e-007 -3.37722e-007 -1.41843e-007 -0.0122037 -0.0032314 0.000661374 2.18615e-007 -3.37708e-007 -1.41885e-007 2.18619e-007 -3.37722e-007 -1.41843e-007 2.18619e-007 -3.37722e-007 -1.41843e-007 2.18619e-007 -3.37722e-007 -1.41843e-007 -0 -8.32304e-006 -0 62.7946 26.7018 29.3862 -1.42076 -4.79813 73.4811 65.996 5.13119e-006 -5.40439e-006 -5.404e-007 -1.14447e-007 -6.4234e-007 -1.96601e-006 9.47918e-006 2.29645e-006 -5.404e-007 -1.14447e-007 -6.4234e-007 -5.404e-007 -1.14447e-007 -6.4234e-007 0.0149955 -7.72118e-005 -4.2065e-007 -5.40415e-007 -1.14531e-007 -6.42325e-007 -5.404e-007 -1.14447e-007 -6.4234e-007 0.0189635 -0.0011732 -5.9219e-005 -1.51948e-006 5.85675e-006 -9.55528e-007 -5.404e-007 -1.14447e-007 -6.4234e-007 0.0122635 -0.00323381 -0.000673932 -5.40429e-007 -1.14516e-007 -6.42312e-007 -5.404e-007 -1.14447e-007 -6.4234e-007 -1.96601e-006 9.47918e-006 2.29645e-006 -5.404e-007 -1.14447e-007 -6.4234e-007 -8.82435 -29.44 14.3814 0.0130076 75.1721 -8.41854 -3.00442 16.4432 -0.97743 3.43923e-008 -3.83118e-007 1.64555e-006 8.97741 -29.19 -17.312 -0.0128455 74.779 8.28056 2.10264 10.7474 1.25331 -1.67204e-007 -7.35971e-007 -1.574e-006 
